HIERARCHY
ROOT Hips
{
  OFFSET 0 0 0
  CHANNELS 6 Xposition Yposition Zposition Zrotation Yrotation Xrotation
  JOINT LeftThigh
  {
    OFFSET 8.409438 0 -5.917753
    CHANNELS 3 Zrotation Yrotation Xrotation
    JOINT LeftLeg
    {
      OFFSET 0 0 -42.358652
      CHANNELS 3 Zrotation Yrotation Xrotation
      JOINT LeftFoot
      {
        OFFSET 0 0 -39.357303
        CHANNELS 3 Zrotation Yrotation Xrotation
      }
    }
  }
  JOINT RightThigh
  {
    OFFSET -8.409438 0 -5.917753
    CHANNELS 3 Zrotation Yrotation Xrotation
    JOINT RightLeg
    {
      OFFSET 0 0 -42.358652
      CHANNELS 3 Zrotation Yrotation Xrotation
      JOINT RightFoot
      {
        OFFSET 0 0 -39.357303
        CHANNELS 3 Zrotation Yrotation Xrotation
      }
    }
  }
  JOINT SpineLow
  {
    OFFSET 0 0 4.719101
    CHANNELS 3 Zrotation Yrotation Xrotation
    JOINT SpineMid
    {
      OFFSET 0 0 12.899191
      CHANNELS 3 Zrotation Yrotation Xrotation
      JOINT Chest
      {
        OFFSET 0 0 12.899191
        CHANNELS 3 Zrotation Yrotation Xrotation
        JOINT LeftShoulder
        {
          OFFSET 7.550562 1.41573 9.438202
          CHANNELS 3 Zrotation Yrotation Xrotation
          JOINT LeftArm
          {
            OFFSET 9.155056 0 4.247191
            CHANNELS 3 Zrotation Yrotation Xrotation
            JOINT LeftForearm
            {
              OFFSET 0 0 25.771955
              CHANNELS 3 Zrotation Yrotation Xrotation
              JOINT LeftHand
              {
                OFFSET 0 0 25.197169
                CHANNELS 3 Zrotation Yrotation Xrotation
              }
            }
          }
        }
        JOINT RightShoulder
        {
          OFFSET -7.550562 1.41573 9.438202
          CHANNELS 3 Zrotation Yrotation Xrotation
          JOINT RightArm
          {
            OFFSET -9.155056 0 4.247191
            CHANNELS 3 Zrotation Yrotation Xrotation
            JOINT RightForearm
            {
              OFFSET 0 0 -25.771955
              CHANNELS 3 Zrotation Yrotation Xrotation
              JOINT RightHand
              {
                OFFSET 0 0 -25.197169
                CHANNELS 3 Zrotation Yrotation Xrotation
              }
            }
          }
        }
        JOINT Neck
        {
          OFFSET 0 0 15.101124
          CHANNELS 3 Zrotation Yrotation Xrotation
          JOINT Head
          {
            OFFSET 0 0 11.325843
            CHANNELS 3 Zrotation Yrotation Xrotation
            End Site
            {
              OFFSET 0 0 14.157303
            }
          }
        }
      }
    }
  }
}
MOTION
Frames: 17
Frame Time: 0.0
0.0  93.25843  0.0  -1.313138  27.344694  -87.047574  -3.176658  -16.607473  -12.634804  -12.038437  3.307689  16.643134  4.955707  0.23739  2.463401  -22.670398  5.872169  -3.298296  -13.876559  5.694145  6.39186  -0.948093  2.394985  0.345782  1.113232  -1.455549  -0.582376  3.081176  -3.95052  -1.660361  3.081176  -3.95052  -1.660361  -19.257618  30.595165  -7.700544  132.231795  36.21698  -156.315481  -13.445654  10.768705  105.887204  69.450012  -11.083985  2.657535  1.190182  -4.063814  17.479534  36.299303  65.990884  -17.12662  -25.181976  -15.450084  -119.878379  69.614502  16.834319  -0.732562  -20.02249  9.677657  7.755246  -15.107401  7.014986  6.130185  
0.0  93.25843  0.0  -1.192867  28.87408  -86.693271  -3.859736  -16.264329  -12.388549  -12.081018  2.512707  15.567139  4.599384  0.078644  2.347747  -22.822902  6.031394  -2.91032  -14.766162  5.218876  5.705997  -1.126632  2.367897  0.334949  1.10525  -1.451742  -0.552523  3.057452  -3.941717  -1.578031  3.057452  -3.941717  -1.578031  -16.498026  30.853995  -7.462735  133.954782  35.29613  -158.475623  -13.796432  13.19819  105.924446  69.336281  -8.80766  1.207935  2.950904  -3.529983  15.660396  29.123905  69.219786  -23.869223  -31.557207  -10.668435  -117.291908  73.437451  15.414676  4.134654  -20.126671  9.660281  7.525832  -15.181446  7.008175  5.959532  
0.0  93.25843  0.0  -1.130694  29.8505  -86.281961  -4.345508  -15.997714  -12.21276  -12.254381  1.824472  14.508013  4.618066  -0.028223  2.325351  -22.942936  6.038565  -2.832726  -16.361721  4.973577  4.93565  -0.21988  2.314818  0.504511  1.312214  -1.388717  -0.545562  3.621565  -3.764778  -1.567701  3.621565  -3.764778  -1.567701  -14.844067  30.601426  -7.277778  135.986399  33.936991  -160.904076  -14.641015  15.761388  105.809241  69.137644  -6.596695  0.111383  3.354915  -3.329615  13.834054  19.633568  72.535566  -33.197252  -37.602165  -4.94909  -114.827249  77.239082  12.899818  9.316618  -20.726862  9.415068  7.37216  -15.626865  6.822254  5.846589  
0.0  93.25843  0.0  -0.981156  30.330447  -85.82407  -4.700073  -15.669367  -12.015763  -12.272014  1.135315  13.49897  4.873155  -0.049942  2.455287  -23.176305  6.040358  -3.066339  -16.526075  4.75684  4.696117  -0.197108  2.322672  0.482667  1.60453  -1.296226  -0.617005  4.422405  -3.500077  -1.773237  4.422405  -3.500076  -1.773237  -13.484199  30.298901  -6.405936  138.600425  32.571695  -163.334799  -15.469944  17.79292  105.855371  68.480215  -4.738324  -0.89989  3.136235  -3.229946  12.432535  6.856265  75.606634  -45.976002  -43.163164  1.352706  -112.677209  80.772522  9.432352  14.283781  -21.367795  9.239475  7.472721  -16.107334  6.67968  5.926611  
0.0  93.25843  0.0  -0.805301  30.26089  -85.39045  -5.015649  -15.339941  -11.676706  -12.846253  0.531525  11.731372  5.1462  0.106485  2.705778  -23.504367  6.043202  -3.522518  -16.681913  4.821264  4.54264  0.407176  2.18411  0.542516  1.851409  -1.130492  -0.68421  5.095484  -3.03532  -1.956787  5.095484  -3.03532  -1.956787  -11.913584  29.614952  -5.316452  141.939308  31.358705  -165.537639  -15.930011  19.291756  105.696457  67.798384  -3.259283  -1.447194  3.215493  -3.349357  10.973552  -10.096065  78.131618  -63.158275  -48.355043  8.042395  -110.796218  84.137131  5.332068  18.780568  -21.75375  8.874961  7.609843  -16.396544  6.396569  6.023272  
0.0  93.25843  0.0  -0.653621  29.623087  -84.948797  -5.297292  -15.041561  -11.247035  -11.869227  -0.210979  10.942233  5.196964  0.268337  2.762675  -23.835261  6.07577  -4.273541  -16.405468  4.733677  4.675238  0.662613  2.197866  0.546406  2.075938  -0.953846  -0.726237  5.705036  -2.542424  -2.066223  5.705037  -2.542424  -2.066222  -10.152085  29.177357  -4.064769  145.439736  30.543606  -167.485922  -16.518311  20.105814  105.359092  67.142822  -1.40032  -1.108648  3.586931  -3.305327  9.26187  -32.220636  79.723095  -85.577726  -53.195477  14.881319  -109.039686  87.088042  0.691937  22.552679  -21.681036  8.392878  7.750288  -16.341529  6.030231  6.111182  
0.0  93.25843  0.0  -0.471717  28.600636  -84.44684  -5.556678  -14.674812  -10.82102  -10.78752  -0.963986  10.230561  5.003432  0.424174  2.657938  -24.310589  5.961697  -5.14337  -15.884022  4.837999  4.796166  2.385661  2.275499  0.825286  2.243863  -0.740501  -0.782147  6.158244  -1.949295  -2.205075  6.158243  -1.949295  -2.205075  -7.92505  28.621558  -2.408133  149.207019  29.949855  -169.096396  -16.977603  20.432467  104.869429  66.376263  0.45625  -0.085058  3.968439  -3.166899  7.868563  -58.575666  79.78953  -112.665617  -57.711375  21.812805  -107.125695  88.934765  -3.777539  25.804674  -21.305087  7.815241  8.002078  -16.059866  5.591971  6.275332  
0.0  93.25843  0.0  -0.450241  27.044001  -84.00823  -5.461571  -14.37922  -10.381994  -9.877881  -1.655954  9.567499  5.256773  0.61811  2.783402  -24.776958  5.681478  -6.047801  -15.312016  4.895872  4.912286  2.73097  2.249185  0.855076  2.525663  -0.50404  -0.878503  6.92172  -1.284131  -2.45118  6.92172  -1.284131  -2.45118  -6.277217  27.87775  -0.661716  153.220025  29.479838  -170.700151  -17.267438  20.963248  104.62342  65.78857  2.523981  0.880663  3.667597  -2.906816  6.665165  -83.580785  78.276042  -138.445932  -61.88462  28.591926  -104.61835  88.909589  -7.243787  28.866134  -21.131566  7.146  8.52621  -15.931687  5.073282  6.64409  
0.0  93.25843  0.0  -0.307311  25.745573  -83.509189  -5.782134  -14.070288  -10.055306  -9.05227  -2.19557  9.044616  5.493484  0.81992  2.806059  -25.856169  5.461139  -6.975035  -14.007516  4.951769  5.138776  3.151207  2.196758  0.863332  2.837159  -0.196791  -1.002931  7.761817  -0.419425  -2.760175  7.761817  -0.419425  -2.760175  -5.62986  26.479289  1.015868  157.449213  28.974556  -172.075181  -18.267196  21.792037  103.820452  64.822702  4.138928  1.569222  2.763926  -2.856404  5.615136  -103.822323  75.113631  -158.950246  -64.797474  34.629794  -101.08612  86.901195  -9.414054  32.181559  -21.270984  6.359975  9.294202  -16.038106  4.454246  7.196069  
0.0  93.25843  0.0  -0.497805  23.737898  -83.323098  -5.431636  -14.072433  -9.675049  -8.208118  -2.528633  8.767146  5.862658  1.004529  2.960309  -26.435823  5.120183  -7.698892  -13.178918  4.866329  5.245758  3.507012  2.18671  0.878828  3.204508  8.58E-4  -1.130866  8.756972  0.15197  -3.084765  8.756972  0.15197  -3.084765  -5.003807  25.075742  2.470199  161.222582  27.909785  -173.518022  -19.792464  23.881187  102.725958  63.80314  5.100028  1.378187  2.331251  -2.320483  4.545268  -117.752101  71.260699  -172.430645  -65.661316  38.861212  -96.586128  84.631898  -10.203097  34.642322  -21.221925  5.877902  10.088253  -16.00479  4.065306  7.775479  
0.0  93.25843  0.0  -0.685142  21.574378  -83.327765  -4.841878  -14.099955  -9.252857  -8.047729  -2.813075  8.213999  6.726689  1.262021  3.548451  -26.762783  4.814026  -8.173291  -12.5425  4.829801  5.285036  3.744984  2.205998  0.872356  3.558484  0.118142  -1.251034  9.717824  0.505787  -3.393774  9.717824  0.505787  -3.393774  -4.529237  23.905783  3.650464  163.97951  26.052065  -175.14599  -21.670148  27.210668  101.520674  62.785362  5.18696  0.275918  2.300478  -1.416194  3.951747  -127.063108  66.951662  179.488603  -65.080609  40.775685  -91.863305  84.668349  -10.765173  35.347556  -20.901448  5.692239  10.899278  -15.770773  3.903345  8.374644  
0.0  93.25843  0.0  -0.935105  19.701206  -83.29483  -4.294435  -14.286893  -8.985477  -7.393001  -2.823246  8.305717  7.064115  1.411276  3.680789  -27.154081  4.446341  -8.579324  -12.01736  4.812904  5.321003  4.049827  2.168782  0.895683  3.8825  0.18305  -1.347289  10.598809  0.714543  -3.642573  10.59881  0.714543  -3.642573  -4.479677  22.588179  4.331029  165.488972  22.596111  -176.327007  -23.662089  30.407179  100.294604  61.578595  4.556799  -1.066303  2.205156  -0.430503  3.691874  -132.659459  62.746378  176.011906  -64.363597  41.257905  -88.367724  86.217478  -11.910784  35.814795  -20.729215  5.599378  11.491563  -15.646512  3.816585  8.814337  
0.0  93.25843  0.0  -1.232872  18.010356  -83.249875  -3.573187  -14.583468  -8.809711  -6.95107  -2.737277  8.430562  7.363436  1.547859  3.817958  -27.394709  4.034028  -8.951727  -11.688732  4.809236  5.383859  4.244883  2.166742  0.908071  4.424552  0.197263  -1.30752  12.079832  0.775549  -3.524379  12.079831  0.775549  -3.524379  -5.646664  22.015322  4.188054  165.32952  18.369306  -177.144729  -25.973692  32.200688  98.940054  53.389021  -1.572164  -2.521055  2.712949  -0.189085  4.124614  -136.632479  57.863775  176.417825  -63.202876  42.539332  -85.898982  87.11081  -13.000783  37.293257  -21.615551  5.486288  11.552033  -16.309998  3.713195  8.865186  
0.0  93.25843  0.0  -1.665393  16.608825  -83.101565  -2.861128  -14.948462  -8.890953  -6.616858  -2.682054  8.687457  7.559024  1.65837  3.912324  -27.500075  3.478638  -9.30001  -11.339554  4.829267  5.483384  4.392866  2.155249  0.932388  4.573121  0.222029  -1.34542  12.483993  0.85791  -3.620775  12.483993  0.85791  -3.620776  -4.597549  22.121415  4.456204  165.238832  15.229889  -177.4758  -27.440854  32.144561  97.143245  55.259273  -4.125541  1.602789  2.898478  -0.179922  4.542198  -135.916502  54.309564  178.315581  -61.671172  44.845237  -84.639683  85.572444  -13.84376  38.643376  -21.301447  5.287728  11.794603  -16.073994  3.561356  9.037514  
0.0  93.25843  0.0  -2.293864  15.616384  -83.276667  -2.304045  -15.555424  -8.780663  -5.996602  -2.633087  9.365927  7.435248  1.741116  3.755971  -27.510038  2.903395  -9.221855  -12.836813  4.596283  5.200906  4.950286  2.469387  0.96083  4.561436  0.165228  -1.369899  12.45469  0.707299  -3.698227  12.45469  0.707299  -3.698228  -3.195492  22.877678  5.180082  165.990625  13.963635  -177.205254  -28.399528  32.093608  97.005591  56.611228  -4.881508  4.228557  3.18874  -0.251605  5.032522  -135.900812  51.04434  -179.878613  -61.291665  44.921835  -84.669089  83.129948  -13.734131  39.403332  -20.762782  5.451307  12.096925  -15.675654  3.684248  9.264261  
0.0  93.25843  0.0  -2.5657  14.729999  -83.538579  -1.765487  -15.862232  -8.548735  -5.927255  -2.490378  9.684656  7.51085  1.832392  3.812271  -27.221005  2.735921  -9.080919  -12.623503  4.707423  5.369656  5.042448  2.460615  0.98168  4.53804  0.102347  -1.413472  12.393664  0.54302  -3.828884  12.393664  0.54302  -3.828884  -2.094029  23.666048  5.48405  168.763977  14.551166  -176.753261  -26.759484  31.693534  98.866699  56.256667  -3.765924  3.412106  3.255685  0.114652  5.368742  -134.187357  49.675377  -178.276554  -59.801224  44.431477  -85.272158  82.286502  -13.485481  40.194041  -20.28598  5.688347  12.491413  -15.326017  3.858609  9.562741  
0.0  93.25843  0.0  -2.397765  13.847385  -83.829716  -0.865268  -15.744684  -8.126161  -5.504482  -2.320077  10.384867  7.024148  1.885756  3.425822  -26.641484  3.004668  -9.016438  -12.457199  4.878485  5.642388  5.062046  2.449687  0.991225  4.552516  0.082728  -1.454258  12.4339  0.498111  -3.943427  12.4339  0.498111  -3.943427  -1.327209  24.191188  5.485586  171.639293  15.13644  -176.007575  -25.289858  30.323834  100.388664  55.007921  -2.51318  1.845997  3.113266  0.962197  5.762573  -133.449047  49.084063  -177.340061  -59.062569  43.235799  -85.859555  83.183749  -13.571334  40.727859  -19.950623  6.081283  13.020845  -15.086851  4.143456  9.968241  
